<svg width="191" height="174" viewBox="0 0 191 174" fill="none" xmlns="http://www.w3.org/2000/svg">
<path d="M12 83.8972C12 37.5621 49.562 0 95.8971 0V0C142.232 0 179.794 37.562 179.794 83.8971V91.3328C179.794 94.9487 176.863 97.88 173.247 97.88H18.5471C14.9312 97.88 12 94.9487 12 91.3328V83.8972Z" fill="#B58FFF"/>
<path d="M53.927 104C53.927 132.207 27.5379 150.272 2 146.86" stroke="white" stroke-width="19.0675"/>
<path d="M137.073 104C137.073 132.207 163.462 150.272 189 146.86" stroke="white" stroke-width="19.0675"/>
<path d="M85.8929 104L66 104.008C67.5804 140.995 71.6927 173.093 96.5536 173.983C124.473 174.983 124.473 131.498 125 104.008H106.036C106.036 122.001 104.349 155.982 96.9554 155.982C89.5616 155.982 85.8929 121.002 85.8929 104Z" fill="white"/>
</svg>
