<svg width="628" height="281" viewBox="0 0 628 281" fill="none" xmlns="http://www.w3.org/2000/svg">
<path d="M610.392 232.477C615.899 232.477 620.178 233.824 623.229 236.519C626.354 239.214 627.917 242.876 627.917 247.504V279.405H615.862V251.019C615.862 247.621 615.118 245.102 613.629 243.462C612.216 241.763 609.909 240.913 606.709 240.913C604.03 240.913 601.611 241.382 599.453 242.319C597.37 243.198 595.137 244.575 592.756 246.45V247.504V279.405H580.701V251.019C580.701 247.621 579.957 245.102 578.468 243.462C577.054 241.763 574.748 240.913 571.548 240.913C568.869 240.913 566.45 241.382 564.292 242.319C562.209 243.198 559.976 244.575 557.595 246.45V279.405H545.54V243.725L543.084 233.531H554.581L556.367 239.683C559.567 237.105 562.544 235.259 565.297 234.146C568.125 233.033 571.436 232.477 575.231 232.477C579.026 232.477 582.263 233.15 584.942 234.498C587.696 235.787 589.705 237.632 590.97 240.034C594.319 237.339 597.407 235.406 600.235 234.234C603.137 233.062 606.523 232.477 610.392 232.477Z" fill="white"/>
<path d="M533.605 232.477V242.319H531.819C525.419 242.319 520.285 243.901 516.415 247.065V279.405H504.36V243.725L501.904 233.531H513.96L515.745 240.737C518.499 237.632 520.917 235.494 523.001 234.322C525.085 233.092 527.429 232.477 530.033 232.477H533.605Z" fill="white"/>
<path d="M462.876 280.46C457.146 280.46 452.16 279.464 447.919 277.472C443.677 275.48 440.403 272.697 438.096 269.123C435.863 265.491 434.747 261.272 434.747 256.468C434.747 251.664 435.863 247.475 438.096 243.901C440.403 240.269 443.677 237.456 447.919 235.465C452.16 233.473 457.146 232.477 462.876 232.477C468.606 232.477 473.592 233.473 477.833 235.465C482.075 237.456 485.312 240.269 487.545 243.901C489.851 247.475 491.005 251.664 491.005 256.468C491.005 261.272 489.851 265.491 487.545 269.123C485.312 272.697 482.075 275.48 477.833 277.472C473.592 279.464 468.606 280.46 462.876 280.46ZM462.876 272.462C467.862 272.462 471.657 271.056 474.261 268.244C476.866 265.373 478.168 261.448 478.168 256.468C478.168 251.488 476.866 247.592 474.261 244.78C471.657 241.909 467.862 240.474 462.876 240.474C457.89 240.474 454.095 241.909 451.49 244.78C448.96 247.592 447.695 251.488 447.695 256.468C447.695 261.448 448.96 265.373 451.49 268.244C454.095 271.056 457.89 272.462 462.876 272.462Z" fill="white"/>
<path d="M405.128 241.089H395.082V233.531H405.128V228.258C405.128 222.985 406.69 218.972 409.816 216.218C412.941 213.465 417.518 212.088 423.545 212.088C425.406 212.088 427.043 212.234 428.457 212.527C429.871 212.82 431.47 213.26 433.256 213.846V221.843C430.429 220.73 427.824 220.173 425.443 220.173C422.541 220.173 420.42 220.817 419.08 222.106C417.815 223.395 417.183 225.299 417.183 227.819V233.531H432.14V241.089H417.183V279.405H405.128V241.089Z" fill="white"/>
<path d="M376.41 213.143H388.465V279.405H376.41V213.143Z" fill="white"/>
<path d="M354.188 279.405L352.737 273.341C347.156 278.087 340.459 280.46 332.645 280.46C327.138 280.46 322.636 279.288 319.139 276.944C315.641 274.542 313.893 271.379 313.893 267.453C313.893 262.356 316.423 258.519 321.483 255.941C326.543 253.304 333.352 251.986 341.91 251.986C345.407 251.986 348.682 252.103 351.733 252.338V249.877C351.733 246.948 350.691 244.692 348.607 243.11C346.598 241.528 343.733 240.737 340.012 240.737C335.919 240.737 332.161 241.206 328.738 242.143C325.39 243.081 321.855 244.575 318.134 246.625V237.837C321.557 235.904 325.092 234.527 328.738 233.707C332.459 232.887 336.626 232.477 341.24 232.477C348.235 232.477 353.742 233.941 357.76 236.871C361.779 239.741 363.788 243.725 363.788 248.822V269.211L366.244 279.405H354.188ZM334.766 272.902C337.966 272.902 340.905 272.375 343.584 271.32C346.338 270.207 349.054 268.596 351.733 266.487V259.017H341.24C336.552 259.017 332.906 259.603 330.301 260.774C327.697 261.946 326.394 263.938 326.394 266.75C326.394 268.684 327.138 270.207 328.627 271.32C330.115 272.375 332.161 272.902 334.766 272.902Z" fill="white"/>
<path d="M284.377 232.477C289.883 232.477 294.162 233.824 297.213 236.519C300.339 239.214 301.901 242.876 301.901 247.504V279.405H289.846V251.019C289.846 247.621 289.102 245.102 287.614 243.462C286.2 241.763 283.893 240.913 280.693 240.913C278.014 240.913 275.596 241.382 273.438 242.319C271.354 243.198 269.122 244.575 266.74 246.45V247.504V279.405H254.685V251.019C254.685 247.621 253.941 245.102 252.453 243.462C251.039 241.763 248.732 240.913 245.532 240.913C242.853 240.913 240.435 241.382 238.277 242.319C236.193 243.198 233.961 244.575 231.579 246.45V279.405H219.524V243.725L217.068 233.531H228.565L230.351 239.683C233.551 237.105 236.528 235.259 239.281 234.146C242.109 233.033 245.42 232.477 249.216 232.477C253.011 232.477 256.248 233.15 258.927 234.498C261.68 235.787 263.689 237.632 264.954 240.034C268.303 237.339 271.391 235.406 274.219 234.234C277.121 233.062 280.507 232.477 284.377 232.477Z" fill="white"/>
<path d="M198.174 224.743C195.941 224.743 194.044 224.157 192.481 222.985C190.918 221.755 190.137 220.232 190.137 218.415C190.137 216.541 190.918 215.017 192.481 213.845C194.044 212.615 195.941 212 198.174 212C200.406 212 202.304 212.615 203.866 213.845C205.429 215.017 206.21 216.541 206.21 218.415C206.21 220.232 205.429 221.755 203.866 222.985C202.304 224.157 200.406 224.743 198.174 224.743ZM204.201 233.531V279.405H192.146V233.531H204.201Z" fill="white"/>
<path d="M158.81 232.477C164.465 232.477 168.893 233.824 172.093 236.519C175.293 239.214 176.893 242.876 176.893 247.504V279.405H164.838V251.019C164.838 247.621 164.056 245.102 162.493 243.462C160.931 241.763 158.512 240.913 155.238 240.913C152.336 240.913 149.694 241.382 147.313 242.319C145.006 243.198 142.587 244.604 140.057 246.538V279.405H128.002V243.725L125.546 233.531H137.044L138.829 239.683C142.253 237.105 145.452 235.259 148.429 234.146C151.406 233.033 154.866 232.477 158.81 232.477Z" fill="white"/>
<path d="M106.652 224.743C104.419 224.743 102.522 224.157 100.959 222.985C99.3961 221.755 98.6147 220.232 98.6147 218.415C98.6147 216.541 99.3961 215.017 100.959 213.845C102.522 212.615 104.419 212 106.652 212C108.884 212 110.782 212.615 112.344 213.845C113.907 215.017 114.688 216.541 114.688 218.415C114.688 220.232 113.907 221.755 112.344 222.985C110.782 224.157 108.884 224.743 106.652 224.743ZM112.679 233.531V279.405H100.624V233.531H112.679Z" fill="white"/>
<path d="M83.7169 279.404H71.6617V228.433L48.5558 279.404H35.6076L12.0552 228.697V279.404H0V218.239H19.8688L42.3049 266.398L64.1829 218.239H83.7169V279.404Z" fill="white"/>
<path d="M230 83.8972C230 37.5621 267.562 0 313.897 0V0C360.232 0 397.794 37.562 397.794 83.8971V91.3328C397.794 94.9487 394.863 97.88 391.247 97.88H236.547C232.931 97.88 230 94.9487 230 91.3328V83.8972Z" fill="#B58FFF"/>
<path d="M271.927 104C271.927 132.207 245.538 150.272 220 146.86" stroke="white" stroke-width="19.0675"/>
<path d="M355.073 104C355.073 132.207 381.462 150.272 407 146.86" stroke="white" stroke-width="19.0675"/>
<path d="M303.893 104L284 104.008C285.58 140.995 289.693 173.093 314.554 173.983C342.473 174.983 342.473 131.498 343 104.008H324.036C324.036 122.001 322.349 155.982 314.955 155.982C307.562 155.982 303.893 121.002 303.893 104Z" fill="white"/>
</svg>
