<svg width="874" height="174" viewBox="0 0 874 174" fill="none" xmlns="http://www.w3.org/2000/svg">
<path d="M854.392 73.4766C859.899 73.4766 864.178 74.8241 867.229 77.5191C870.354 80.2141 871.917 83.8758 871.917 88.5042V120.405H859.862V92.0195C859.862 88.6214 859.118 86.1021 857.629 84.4617C856.216 82.7627 853.909 81.9131 850.709 81.9131C848.03 81.9131 845.611 82.3818 843.453 83.3192C841.37 84.1981 839.137 85.5749 836.756 87.4497V88.5042V120.405H824.701V92.0195C824.701 88.6214 823.957 86.1021 822.468 84.4617C821.054 82.7627 818.748 81.9131 815.548 81.9131C812.869 81.9131 810.45 82.3818 808.292 83.3192C806.209 84.1981 803.976 85.5749 801.595 87.4497V120.405H789.54V84.7253L787.084 74.5311H798.581L800.367 80.6828C803.567 78.105 806.544 76.2595 809.297 75.1463C812.125 74.0331 815.436 73.4766 819.231 73.4766C823.026 73.4766 826.263 74.1503 828.942 75.4978C831.696 76.7868 833.705 78.6323 834.97 81.0343C838.319 78.3393 841.407 76.4059 844.235 75.2342C847.137 74.0624 850.523 73.4766 854.392 73.4766Z" fill="white"/>
<path d="M777.605 73.4766V83.3192H775.819C769.419 83.3192 764.285 84.9011 760.415 88.0648V120.405H748.36V84.7253L745.904 74.5311H757.96L759.745 81.7374C762.499 78.6323 764.917 76.4938 767.001 75.3221C769.085 74.0917 771.429 73.4766 774.033 73.4766H777.605Z" fill="white"/>
<path d="M706.876 121.46C701.146 121.46 696.16 120.464 691.919 118.472C687.677 116.48 684.403 113.697 682.096 110.123C679.863 106.491 678.747 102.272 678.747 97.4681C678.747 92.6639 679.863 88.4749 682.096 84.9011C684.403 81.2687 687.677 78.4565 691.919 76.4645C696.16 74.4726 701.146 73.4766 706.876 73.4766C712.606 73.4766 717.592 74.4726 721.833 76.4645C726.075 78.4565 729.312 81.2687 731.545 84.9011C733.851 88.4749 735.005 92.6639 735.005 97.4681C735.005 102.272 733.851 106.491 731.545 110.123C729.312 113.697 726.075 116.48 721.833 118.472C717.592 120.464 712.606 121.46 706.876 121.46ZM706.876 113.462C711.862 113.462 715.657 112.056 718.261 109.244C720.866 106.373 722.168 102.448 722.168 97.4681C722.168 92.4882 720.866 88.5921 718.261 85.7799C715.657 82.9091 711.862 81.4737 706.876 81.4737C701.89 81.4737 698.095 82.9091 695.49 85.7799C692.96 88.5921 691.695 92.4882 691.695 97.4681C691.695 102.448 692.96 106.373 695.49 109.244C698.095 112.056 701.89 113.462 706.876 113.462Z" fill="white"/>
<path d="M649.128 82.0886H639.082V74.5309H649.128V69.258C649.128 63.9851 650.69 59.9719 653.816 57.2183C656.941 54.4647 661.518 53.0879 667.545 53.0879C669.406 53.0879 671.043 53.2344 672.457 53.5273C673.871 53.8202 675.47 54.2596 677.256 54.8455V62.8427C674.429 61.7295 671.824 61.173 669.443 61.173C666.541 61.173 664.42 61.8174 663.08 63.1063C661.815 64.3953 661.183 66.2993 661.183 68.8186V74.5309H676.14V82.0886H661.183V120.405H649.128V82.0886Z" fill="white"/>
<path d="M620.41 54.1426H632.465V120.405H620.41V54.1426Z" fill="white"/>
<path d="M598.188 120.405L596.737 114.341C591.156 119.087 584.459 121.46 576.645 121.46C571.138 121.46 566.636 120.288 563.139 117.944C559.641 115.542 557.893 112.379 557.893 108.453C557.893 103.356 560.423 99.5187 565.483 96.9408C570.543 94.3044 577.352 92.9862 585.91 92.9862C589.407 92.9862 592.682 93.1033 595.733 93.3377V90.877C595.733 87.9477 594.691 85.692 592.607 84.1102C590.598 82.5283 587.733 81.7374 584.012 81.7374C579.919 81.7374 576.161 82.2061 572.738 83.1435C569.39 84.0809 565.855 85.5749 562.134 87.6254V78.8373C565.557 76.9039 569.092 75.5271 572.738 74.7069C576.459 73.8867 580.626 73.4766 585.24 73.4766C592.235 73.4766 597.742 74.9412 601.76 77.8706C605.779 80.7414 607.788 84.7253 607.788 89.8224V110.211L610.244 120.405H598.188ZM578.766 113.902C581.966 113.902 584.905 113.375 587.584 112.32C590.338 111.207 593.054 109.596 595.733 107.487V100.017H585.24C580.552 100.017 576.906 100.603 574.301 101.774C571.697 102.946 570.394 104.938 570.394 107.75C570.394 109.684 571.138 111.207 572.627 112.32C574.115 113.375 576.161 113.902 578.766 113.902Z" fill="white"/>
<path d="M528.377 73.4766C533.883 73.4766 538.162 74.8241 541.213 77.5191C544.339 80.2141 545.901 83.8758 545.901 88.5042V120.405H533.846V92.0195C533.846 88.6214 533.102 86.1021 531.614 84.4617C530.2 82.7627 527.893 81.9131 524.693 81.9131C522.014 81.9131 519.596 82.3818 517.438 83.3192C515.354 84.1981 513.122 85.5749 510.74 87.4497V88.5042V120.405H498.685V92.0195C498.685 88.6214 497.941 86.1021 496.453 84.4617C495.039 82.7627 492.732 81.9131 489.532 81.9131C486.853 81.9131 484.435 82.3818 482.277 83.3192C480.193 84.1981 477.961 85.5749 475.579 87.4497V120.405H463.524V84.7253L461.068 74.5311H472.565L474.351 80.6828C477.551 78.105 480.528 76.2595 483.281 75.1463C486.109 74.0331 489.42 73.4766 493.216 73.4766C497.011 73.4766 500.248 74.1503 502.927 75.4978C505.68 76.7868 507.689 78.6323 508.954 81.0343C512.303 78.3393 515.391 76.4059 518.219 75.2342C521.121 74.0624 524.507 73.4766 528.377 73.4766Z" fill="white"/>
<path d="M442.174 65.7428C439.941 65.7428 438.044 65.1569 436.481 63.9851C434.918 62.7548 434.137 61.2315 434.137 59.4153C434.137 57.5405 434.918 56.0172 436.481 54.8455C438.044 53.6152 439.941 53 442.174 53C444.406 53 446.304 53.6152 447.866 54.8455C449.429 56.0172 450.21 57.5405 450.21 59.4153C450.21 61.2315 449.429 62.7548 447.866 63.9851C446.304 65.1569 444.406 65.7428 442.174 65.7428ZM448.201 74.5309V120.405H436.146V74.5309H448.201Z" fill="white"/>
<path d="M402.81 73.4766C408.465 73.4766 412.893 74.8241 416.093 77.5191C419.293 80.2141 420.893 83.8758 420.893 88.5042V120.405H408.838V92.0195C408.838 88.6214 408.056 86.1021 406.493 84.4617C404.931 82.7627 402.512 81.9131 399.238 81.9131C396.336 81.9131 393.694 82.3818 391.313 83.3192C389.006 84.1981 386.587 85.6042 384.057 87.5375V120.405H372.002V84.7253L369.546 74.5311H381.044L382.829 80.6828C386.253 78.105 389.452 76.2595 392.429 75.1463C395.406 74.0331 398.866 73.4766 402.81 73.4766Z" fill="white"/>
<path d="M350.652 65.7428C348.419 65.7428 346.522 65.1569 344.959 63.9851C343.396 62.7548 342.615 61.2315 342.615 59.4153C342.615 57.5405 343.396 56.0172 344.959 54.8455C346.522 53.6152 348.419 53 350.652 53C352.884 53 354.782 53.6152 356.344 54.8455C357.907 56.0172 358.688 57.5405 358.688 59.4153C358.688 61.2315 357.907 62.7548 356.344 63.9851C354.782 65.1569 352.884 65.7428 350.652 65.7428ZM356.679 74.5309V120.405H344.624V74.5309H356.679Z" fill="white"/>
<path d="M327.717 120.404H315.662V69.4335L292.556 120.404H279.608L256.055 69.6971V120.404H244V59.2393H263.869L286.305 107.398L308.183 59.2393H327.717V120.404Z" fill="white"/>
<path d="M12 83.8972C12 37.5621 49.562 0 95.8971 0V0C142.232 0 179.794 37.562 179.794 83.8971V91.3328C179.794 94.9487 176.863 97.88 173.247 97.88H18.5471C14.9312 97.88 12 94.9487 12 91.3328V83.8972Z" fill="#B58FFF"/>
<path d="M53.927 104C53.927 132.207 27.5379 150.272 2 146.86" stroke="white" stroke-width="19.0675"/>
<path d="M137.073 104C137.073 132.207 163.462 150.272 189 146.86" stroke="white" stroke-width="19.0675"/>
<path d="M85.8929 104L66 104.008C67.5804 140.995 71.6927 173.093 96.5536 173.983C124.473 174.983 124.473 131.498 125 104.008H106.036C106.036 122.001 104.349 155.982 96.9554 155.982C89.5616 155.982 85.8929 121.002 85.8929 104Z" fill="white"/>
<path d="M856.241 73.3203C861.747 73.3203 866.026 74.6678 869.077 77.3628C872.203 80.0579 873.765 83.7196 873.765 88.348V120.249H861.71V91.8632C861.71 88.4652 860.966 85.9459 859.478 84.3055C858.064 82.6064 855.757 81.7569 852.557 81.7569C849.878 81.7569 847.46 82.2256 845.301 83.163C843.218 84.0418 840.985 85.4186 838.604 87.2934V88.348V120.249H826.549V91.8632C826.549 88.4652 825.805 85.9459 824.316 84.3055C822.903 82.6064 820.596 81.7569 817.396 81.7569C814.717 81.7569 812.298 82.2256 810.14 83.163C808.057 84.0418 805.824 85.4186 803.443 87.2934V120.249H791.388V84.5691L788.932 74.3749H800.429L802.215 80.5266C805.415 77.9487 808.392 76.1032 811.145 74.9901C813.973 73.8769 817.284 73.3203 821.079 73.3203C824.875 73.3203 828.112 73.9941 830.791 75.3416C833.544 76.6305 835.553 78.476 836.818 80.8781C840.167 78.1831 843.255 76.2497 846.083 75.0779C848.985 73.9062 852.371 73.3203 856.241 73.3203Z" fill="white"/>
<path d="M779.453 73.3203V83.163H777.667C771.268 83.163 766.133 84.7449 762.263 87.9086V120.249H750.208V84.5691L747.752 74.3749H759.808L761.594 81.5811C764.347 78.476 766.765 76.3376 768.849 75.1658C770.933 73.9355 773.277 73.3203 775.881 73.3203H779.453Z" fill="white"/>
<path d="M708.724 121.303C702.994 121.303 698.008 120.307 693.767 118.315C689.525 116.323 686.251 113.541 683.944 109.967C681.711 106.334 680.595 102.116 680.595 97.3119C680.595 92.5077 681.711 88.3187 683.944 84.7449C686.251 81.1124 689.525 78.3002 693.767 76.3083C698.008 74.3163 702.994 73.3203 708.724 73.3203C714.454 73.3203 719.44 74.3163 723.681 76.3083C727.923 78.3002 731.16 81.1124 733.393 84.7449C735.7 88.3187 736.853 92.5077 736.853 97.3119C736.853 102.116 735.7 106.334 733.393 109.967C731.16 113.541 727.923 116.323 723.681 118.315C719.44 120.307 714.454 121.303 708.724 121.303ZM708.724 113.306C713.71 113.306 717.505 111.9 720.11 109.088C722.714 106.217 724.016 102.292 724.016 97.3119C724.016 92.3319 722.714 88.4359 720.11 85.6237C717.505 82.7529 713.71 81.3175 708.724 81.3175C703.738 81.3175 699.943 82.7529 697.339 85.6237C694.808 88.4359 693.543 92.3319 693.543 97.3119C693.543 102.292 694.808 106.217 697.339 109.088C699.943 111.9 703.738 113.306 708.724 113.306Z" fill="white"/>
<path d="M650.976 81.9324H640.93V74.3746H650.976V69.1018C650.976 63.8289 652.538 59.8157 655.664 57.0621C658.789 54.3084 663.366 52.9316 669.393 52.9316C671.254 52.9316 672.891 53.0781 674.305 53.371C675.719 53.664 677.319 54.1034 679.105 54.6893V62.6864C676.277 61.5733 673.672 61.0167 671.291 61.0167C668.389 61.0167 666.268 61.6612 664.929 62.9501C663.664 64.239 663.031 66.1431 663.031 68.6624V74.3746H677.988V81.9324H663.031V120.249H650.976V81.9324Z" fill="white"/>
<path d="M622.258 53.9863H634.314V120.249H622.258V53.9863Z" fill="white"/>
<path d="M600.036 120.249L598.585 114.185C593.004 118.931 586.307 121.303 578.493 121.303C572.987 121.303 568.484 120.132 564.987 117.788C561.489 115.386 559.741 112.222 559.741 108.297C559.741 103.2 562.271 99.3624 567.331 96.7846C572.391 94.1481 579.2 92.8299 587.758 92.8299C591.255 92.8299 594.53 92.9471 597.581 93.1814V90.7208C597.581 87.7914 596.539 85.5358 594.455 83.9539C592.446 82.3721 589.581 81.5811 585.86 81.5811C581.768 81.5811 578.01 82.0498 574.587 82.9872C571.238 83.9246 567.703 85.4186 563.982 87.4692V78.6811C567.405 76.7477 570.94 75.3709 574.587 74.5506C578.307 73.7304 582.474 73.3203 587.088 73.3203C594.083 73.3203 599.59 74.785 603.608 77.7144C607.627 80.5852 609.636 84.5691 609.636 89.6662V110.055L612.092 120.249H600.036ZM580.614 113.746C583.814 113.746 586.753 113.218 589.432 112.164C592.186 111.051 594.902 109.439 597.581 107.33V99.8604H587.088C582.4 99.8604 578.754 100.446 576.149 101.618C573.545 102.79 572.242 104.782 572.242 107.594C572.242 109.527 572.987 111.051 574.475 112.164C575.963 113.218 578.01 113.746 580.614 113.746Z" fill="white"/>
<path d="M530.225 73.3203C535.732 73.3203 540.01 74.6678 543.061 77.3628C546.187 80.0579 547.75 83.7196 547.75 88.348V120.249H535.694V91.8632C535.694 88.4652 534.95 85.9459 533.462 84.3055C532.048 82.6064 529.741 81.7569 526.541 81.7569C523.862 81.7569 521.444 82.2256 519.286 83.163C517.202 84.0418 514.97 85.4186 512.589 87.2934V88.348V120.249H500.533V91.8632C500.533 88.4652 499.789 85.9459 498.301 84.3055C496.887 82.6064 494.58 81.7569 491.38 81.7569C488.701 81.7569 486.283 82.2256 484.125 83.163C482.041 84.0418 479.809 85.4186 477.427 87.2934V120.249H465.372V84.5691L462.917 74.3749H474.414L476.2 80.5266C479.399 77.9487 482.376 76.1032 485.129 74.9901C487.957 73.8769 491.269 73.3203 495.064 73.3203C498.859 73.3203 502.096 73.9941 504.775 75.3416C507.528 76.6305 509.538 78.476 510.803 80.8781C514.151 78.1831 517.239 76.2497 520.067 75.0779C522.969 73.9062 526.355 73.3203 530.225 73.3203Z" fill="white"/>
<path d="M444.022 65.5865C441.789 65.5865 439.892 65.0006 438.329 63.8289C436.766 62.5985 435.985 61.0753 435.985 59.2591C435.985 57.3843 436.766 55.861 438.329 54.6892C439.892 53.4589 441.789 52.8438 444.022 52.8438C446.254 52.8438 448.152 53.4589 449.714 54.6892C451.277 55.861 452.058 57.3843 452.058 59.2591C452.058 61.0753 451.277 62.5985 449.714 63.8289C448.152 65.0006 446.254 65.5865 444.022 65.5865ZM450.049 74.3746V120.249H437.994V74.3746H450.049Z" fill="white"/>
<path d="M404.658 73.3203C410.314 73.3203 414.741 74.6678 417.941 77.3628C421.141 80.0579 422.741 83.7196 422.741 88.348V120.249H410.686V91.8632C410.686 88.4652 409.904 85.9459 408.342 84.3055C406.779 82.6064 404.36 81.7569 401.086 81.7569C398.184 81.7569 395.542 82.2256 393.161 83.163C390.854 84.0418 388.436 85.4479 385.905 87.3813V120.249H373.85V84.5691L371.395 74.3749H382.892L384.678 80.5266C388.101 77.9487 391.301 76.1032 394.277 74.9901C397.254 73.8769 400.714 73.3203 404.658 73.3203Z" fill="white"/>
<path d="M352.5 65.5865C350.267 65.5865 348.37 65.0006 346.807 63.8289C345.244 62.5985 344.463 61.0753 344.463 59.2591C344.463 57.3843 345.244 55.861 346.807 54.6892C348.37 53.4589 350.267 52.8438 352.5 52.8438C354.732 52.8438 356.63 53.4589 358.192 54.6892C359.755 55.861 360.537 57.3843 360.537 59.2591C360.537 61.0753 359.755 62.5985 358.192 63.8289C356.63 65.0006 354.732 65.5865 352.5 65.5865ZM358.527 74.3746V120.249H346.472V74.3746H358.527Z" fill="white"/>
<path d="M329.565 120.248H317.51V69.2772L294.404 120.248H281.456L257.903 69.5409V120.248H245.848V59.083H265.717L288.153 107.242L310.031 59.083H329.565V120.248Z" fill="white"/>
</svg>
